<svg width="34" height="36" viewBox="0 0 34 36" fill="none" xmlns="http://www.w3.org/2000/svg">
<path d="M24.75 35.5V30.25H19.5V26.75H24.75V21.5H28.25V26.75H33.5V30.25H28.25V35.5H24.75ZM3.75 32C2.7875 32 1.96325 31.6576 1.27725 30.9727C0.592416 30.2868 0.25 29.4625 0.25 28.5V7.5C0.25 6.5375 0.592416 5.71383 1.27725 5.029C1.96325 4.343 2.7875 4 3.75 4H5.5V0.5H9V4H19.5V0.5H23V4H24.75C25.7125 4 26.5368 4.343 27.2227 5.029C27.9076 5.71383 28.25 6.5375 28.25 7.5V18.175C27.6667 18.0875 27.0833 18.0437 26.5 18.0437C25.9167 18.0437 25.3333 18.0875 24.75 18.175V14.5H3.75V28.5H16C16 29.0833 16.0437 29.6667 16.1312 30.25C16.2188 30.8333 16.3792 31.4167 16.6125 32H3.75Z" fill="white"/>
</svg>
